<mxfile host="app.diagrams.net" modified="2023-04-12T08:56:50.093Z" agent="Mozilla/5.0 (Macintosh; Intel Mac OS X 10_15_7) AppleWebKit/537.36 (KHTML, like Gecko) Chrome/111.0.0.0 Safari/537.36" etag="luNJdtXWX0UwXPL4zZwZ" version="21.1.2" type="github" pages="2">
  <diagram name="第 1 页" id="ekadq5DXpkEGa8FbzkoT">
    <mxGraphModel dx="2586" dy="1636" grid="0" gridSize="10" guides="1" tooltips="1" connect="1" arrows="1" fold="1" page="0" pageScale="1" pageWidth="827" pageHeight="1169" math="0" shadow="0">
      <root>
        <mxCell id="0" />
        <mxCell id="1" parent="0" />
        <mxCell id="h189E1Nnk5QpLwX9wvr9-1" value="你猜这是什么" style="rounded=0;whiteSpace=wrap;html=1;fontSize=16;" vertex="1" parent="1">
          <mxGeometry x="-453" y="-65" width="212" height="73" as="geometry" />
        </mxCell>
      </root>
    </mxGraphModel>
  </diagram>
  <diagram id="0e7z9AiMYTGqcStuD1FH" name="第 2 页">
    <mxGraphModel dx="1504" dy="1037" grid="0" gridSize="10" guides="1" tooltips="1" connect="1" arrows="1" fold="1" page="0" pageScale="1" pageWidth="827" pageHeight="1169" math="0" shadow="0">
      <root>
        <mxCell id="0" />
        <mxCell id="1" parent="0" />
      </root>
    </mxGraphModel>
  </diagram>
</mxfile>
